<?xml version="1.0" encoding="UTF-8" standalone="no"?>
<!DOCTYPE svg PUBLIC "-//W3C//DTD SVG 1.1//EN" "http://www.w3.org/Graphics/SVG/1.1/DTD/svg11.dtd">
<svg xmlns="http://www.w3.org/2000/svg" xmlns:xlink="http://www.w3.org/1999/xlink" version="1.1" width="591.6476pt" height="305.6774pt" viewBox="0 0 591.6476 305.6774">
<g enable-background="new">
<g>
<clipPath id="cp0">
<path transform="matrix(1,0,0,-1,0,305.6774)" d="M 0 0 L 591.6476 0 L 591.6476 305.6774 L 0 305.6774 Z "/>
</clipPath>
<g clip-path="url(#cp0)">
<g>
<clipPath id="cp1">
<path transform="matrix(1,0,0,-1,0,305.6774)" d="M 0 0 L 592 0 L 592 306 L 0 306 Z "/>
</clipPath>
<g clip-path="url(#cp1)">
<clipPath id="cp2">
<path transform="matrix(1,0,0,-1,0,305.6774)" d="M 0 0 L 591.6476 0 L 591.6476 305.6774 L 0 305.6774 Z "/>
</clipPath>
<g clip-path="url(#cp2)">
<g>
<clipPath id="cp3">
<path transform="matrix(1,0,0,-1,0,305.6774)" d="M 0 0 L 592 0 L 592 306 L 0 306 Z "/>
</clipPath>
<g clip-path="url(#cp3)">
<clipPath id="cp4">
<path transform="matrix(1,0,0,-1,0,305.6774)" d="M 0 0 L 592 0 L 592 306 L 0 306 Z "/>
</clipPath>
<g clip-path="url(#cp4)">
<path transform="matrix(1,0,0,-1,-55.29619,499.5285)" d="M 54.573 191.974 L 648.573 191.974 L 648.573 499.974 L 54.573 499.974 Z " fill="#1f1f1f"/>
<path transform="matrix(1,0,0,-1,-55.29619,499.5285)" stroke-width="1" stroke-linecap="butt" stroke-miterlimit="10" stroke-linejoin="miter" fill="none" stroke="#ffffff" d="M 54.573 191.974 L 648.573 191.974 L 648.573 499.974 L 54.573 499.974 Z "/>
<path transform="matrix(1,0,0,-1,0,305.6774)" d="M 305.8854 152.5791 L 305.8854 143.2091 L 262.4434 143.2091 L 262.4434 150.6631 L 289.7014 183.5291 L 263.0114 183.5291 L 263.0114 192.8981 L 304.8214 192.8981 L 304.8214 185.4451 L 277.6344 152.5791 Z " fill="#fffcff"/>
<path transform="matrix(1,0,0,-1,0,305.6774)" d="M 312.4878 143.2089 L 323.5608 143.2089 L 323.5608 181.3989 L 312.4878 181.3989 Z " fill="#fffcff"/>
<path transform="matrix(1,0,0,-1,0,305.6774)" d="M 359.5139 156.7319 C 361.3829 158.4589 362.3179 160.7179 362.3179 163.5109 C 362.3179 166.3029 361.3829 168.5619 359.5139 170.2899 C 357.6429 172.0179 355.2419 172.8809 352.3089 172.8809 C 349.3739 172.8809 346.9609 172.0179 345.0679 170.2899 C 343.1749 168.5619 342.2289 166.3029 342.2289 163.5109 C 342.2289 160.7179 343.1749 158.4589 345.0679 156.7319 C 346.9609 155.0029 349.3739 154.1409 352.3089 154.1409 C 355.2419 154.1409 357.6429 155.0029 359.5139 156.7319 M 373.2489 181.3989 L 373.2489 149.5979 C 373.2489 142.5949 371.4279 137.3879 367.7839 133.9819 C 364.1389 130.5739 358.8149 128.8709 351.8119 128.8709 C 348.1199 128.8709 344.6189 129.3209 341.3059 130.2189 C 337.9929 131.1189 335.2479 132.4199 333.0729 134.1239 L 337.4729 142.0739 C 339.0819 140.7499 341.1169 139.6949 343.5779 138.9149 C 346.0379 138.1329 348.4999 137.7439 350.9609 137.7439 C 354.7939 137.7439 357.6209 138.6079 359.4429 140.3349 C 361.2639 142.0619 362.1759 144.6759 362.1759 148.1789 L 362.1759 149.8109 C 359.2889 146.6389 355.2659 145.0549 350.1079 145.0549 C 346.6059 145.0549 343.3999 145.8239 340.4899 147.3619 C 337.5789 148.8989 335.2719 151.0639 333.5689 153.8569 C 331.8659 156.6489 331.0139 159.8669 331.0139 163.5109 C 331.0139 167.1539 331.8659 170.3719 333.5689 173.1649 C 335.2719 175.9569 337.5789 178.1219 340.4899 179.6599 C 343.3999 181.1969 346.6059 181.9669 350.1079 181.9669 C 355.6449 181.9669 359.8559 180.1439 362.7439 176.5019 L 362.7439 181.3989 Z " fill="#fffcff"/>
<path transform="matrix(1,0,0,-1,0,305.6774)" d="M 418.218 177.708 C 421.129 174.868 422.583 170.656 422.583 165.072 L 422.583 143.209 L 411.51 143.209 L 411.51 163.369 C 411.51 166.397 410.846 168.657 409.523 170.148 C 408.197 171.638 406.281 172.385 403.772 172.385 C 400.98 172.385 398.756 171.52 397.1 169.792 C 395.443 168.065 394.615 165.499 394.615 162.091 L 394.615 143.209 L 383.542 143.209 L 383.542 181.399 L 394.118 181.399 L 394.118 176.927 C 395.585 178.536 397.407 179.778 399.585 180.653 C 401.761 181.528 404.151 181.967 406.754 181.967 C 411.485 181.967 415.308 180.547 418.218 177.708 " fill="#fffcff"/>
<path transform="matrix(1,0,0,-1,0,305.6774)" d="M 452.1843 151.4087 C 453.6493 152.2837 454.6913 153.5737 455.3073 155.2767 L 455.3073 159.1807 L 447.7123 159.1807 C 443.1683 159.1807 440.8963 157.6907 440.8963 154.7087 C 440.8963 153.2887 441.4523 152.1647 442.5643 151.3367 C 443.6763 150.5087 445.2023 150.0947 447.1433 150.0947 C 449.0353 150.0947 450.7163 150.5327 452.1843 151.4087 M 461.6243 177.7437 C 464.7943 174.9277 466.3813 170.6807 466.3813 165.0017 L 466.3813 143.2087 L 456.0163 143.2087 L 456.0163 147.9657 C 453.9333 144.4157 450.0533 142.6417 444.3753 142.6417 C 441.4403 142.6417 438.8973 143.1387 436.7443 144.1317 C 434.5903 145.1267 432.9463 146.4977 431.8113 148.2487 C 430.6753 149.9997 430.1073 151.9867 430.1073 154.2117 C 430.1073 157.7617 431.4443 160.5537 434.1183 162.5887 C 436.7903 164.6227 440.9203 165.6407 446.5053 165.6407 L 455.3073 165.6407 C 455.3073 168.0547 454.5723 169.9107 453.1063 171.2127 C 451.6393 172.5137 449.4383 173.1647 446.5053 173.1647 C 444.4703 173.1647 442.4693 172.8457 440.5073 172.2067 C 438.5423 171.5677 436.8743 170.7037 435.5023 169.6167 L 431.5273 177.3527 C 433.6093 178.8197 436.1063 179.9547 439.0163 180.7607 C 441.9273 181.5637 444.9183 181.9677 447.9963 181.9677 C 453.9113 181.9677 458.4533 180.5577 461.6243 177.7437 " fill="#fffcff"/>
<path transform="matrix(1,0,0,-1,0,305.6774)" d="M 492.3244 180.5468 C 494.5724 181.4938 497.1624 181.9668 500.0974 181.9668 L 500.0974 171.7458 C 498.8664 171.8398 498.0384 171.8868 497.6134 171.8868 C 494.4414 171.8868 491.9574 171.0008 490.1604 169.2248 C 488.3614 167.4508 487.4624 164.7888 487.4624 161.2388 L 487.4624 143.2088 L 476.3884 143.2088 L 476.3884 181.3998 L 486.9654 181.3998 L 486.9654 176.3598 C 488.2894 178.2038 490.0764 179.6008 492.3244 180.5468 " fill="#fffcff"/>
<path transform="matrix(1,0,0,-1,0,305.6774)" d="M 268.4069 114.4555 L 261.8629 114.4555 L 261.8629 118.3125 L 279.6839 118.3125 L 279.6839 114.4555 L 273.1399 114.4555 L 273.1399 97.86051 L 268.4069 97.86051 Z " fill="#fffcff"/>
<path transform="matrix(1,0,0,-1,0,305.6774)" d="M 298.0622 101.6592 L 298.0622 97.86121 L 282.2272 97.86121 L 282.2272 118.3122 L 297.6822 118.3122 L 297.6822 114.5142 L 286.9312 114.5142 L 286.9312 110.0732 L 296.4252 110.0732 L 296.4252 106.3912 L 286.9312 106.3912 L 286.9312 101.6592 Z " fill="#fffcff"/>
<path transform="matrix(1,0,0,-1,0,305.6774)" d="M 305.9074 98.86911 C 304.2214 99.77511 302.8974 101.0311 301.9334 102.6371 C 300.9694 104.2441 300.4874 106.0611 300.4874 108.0871 C 300.4874 110.1121 300.9694 111.9291 301.9334 113.5361 C 302.8974 115.1421 304.2214 116.3991 305.9074 117.3041 C 307.5914 118.2111 309.4864 118.6631 311.5894 118.6631 C 313.3614 118.6631 314.9644 118.3511 316.3964 117.7291 C 317.8274 117.1051 319.0294 116.2091 320.0044 115.0401 L 316.9664 112.2351 C 315.5814 113.8321 313.8684 114.6311 311.8234 114.6311 C 310.5574 114.6311 309.4274 114.3531 308.4344 113.7981 C 307.4414 113.2441 306.6664 112.4691 306.1124 111.4751 C 305.5564 110.4821 305.2794 109.3531 305.2794 108.0871 C 305.2794 106.8201 305.5564 105.6911 306.1124 104.6981 C 306.6664 103.7041 307.4414 102.9301 308.4344 102.3751 C 309.4274 101.8201 310.5574 101.5421 311.8234 101.5421 C 313.8684 101.5421 315.5814 102.3501 316.9664 103.9671 L 320.0044 101.1621 C 319.0294 99.97411 317.8234 99.06811 316.3814 98.44411 C 314.9394 97.82211 313.3324 97.51011 311.5604 97.51011 C 309.4764 97.51011 307.5914 97.96211 305.9074 98.86911 " fill="#fffcff"/>
<path transform="matrix(1,0,0,-1,0,305.6774)" d="M 341.9445 118.3125 L 341.9445 97.86051 L 337.2125 97.86051 L 337.2125 106.2465 L 327.9215 106.2465 L 327.9215 97.86051 L 323.1875 97.86051 L 323.1875 118.3125 L 327.9215 118.3125 L 327.9215 110.2485 L 337.2125 110.2485 L 337.2125 118.3125 Z " fill="#fffcff"/>
<path transform="matrix(1,0,0,-1,0,305.6774)" d="M 365.5524 118.3125 L 365.5524 97.86051 L 361.6674 97.86051 L 351.4704 110.2775 L 351.4704 97.86051 L 346.7954 97.86051 L 346.7954 118.3125 L 350.7104 118.3125 L 360.8774 105.8955 L 360.8774 118.3125 Z " fill="#fffcff"/>
<path transform="matrix(1,0,0,-1,0,305.6774)" d="M 383.5793 102.3755 C 384.5533 102.9295 385.3173 103.7045 385.8733 104.6975 C 386.4283 105.6905 386.7063 106.8205 386.7063 108.0865 C 386.7063 109.3535 386.4283 110.4825 385.8733 111.4755 C 385.3173 112.4695 384.5533 113.2435 383.5793 113.7975 C 382.6053 114.3535 381.5153 114.6305 380.3073 114.6305 C 379.0993 114.6305 378.0083 114.3535 377.0353 113.7975 C 376.0613 113.2435 375.2963 112.4695 374.7423 111.4755 C 374.1863 110.4825 373.9093 109.3535 373.9093 108.0865 C 373.9093 106.8205 374.1863 105.6905 374.7423 104.6975 C 375.2963 103.7045 376.0613 102.9295 377.0353 102.3755 C 378.0083 101.8195 379.0993 101.5425 380.3073 101.5425 C 381.5153 101.5425 382.6053 101.8195 383.5793 102.3755 M 374.5663 98.88351 C 372.8613 99.79851 371.5273 101.0605 370.5633 102.6665 C 369.5993 104.2735 369.1173 106.0805 369.1173 108.0865 C 369.1173 110.0925 369.5993 111.8995 370.5633 113.5065 C 371.5273 115.1125 372.8613 116.3745 374.5663 117.2905 C 376.2703 118.2055 378.1843 118.6635 380.3073 118.6635 C 382.4303 118.6635 384.3393 118.2055 386.0333 117.2905 C 387.7283 116.3745 389.0623 115.1125 390.0373 113.5065 C 391.0103 111.8995 391.4963 110.0925 391.4963 108.0865 C 391.4963 106.0805 391.0103 104.2735 390.0373 102.6665 C 389.0623 101.0605 387.7283 99.79851 386.0333 98.88351 C 384.3393 97.96751 382.4303 97.50951 380.3073 97.50951 C 378.1843 97.50951 376.2703 97.96751 374.5663 98.88351 " fill="#fffcff"/>
<path transform="matrix(1,0,0,-1,0,305.6774)" d="M 395.0617 118.3125 L 399.7947 118.3125 L 399.7947 101.7175 L 410.0497 101.7175 L 410.0497 97.86051 L 395.0617 97.86051 Z " fill="#fffcff"/>
<path transform="matrix(1,0,0,-1,0,305.6774)" d="M 425.5344 102.3755 C 426.5084 102.9295 427.2734 103.7045 427.8284 104.6975 C 428.3834 105.6905 428.6614 106.8205 428.6614 108.0865 C 428.6614 109.3535 428.3834 110.4825 427.8284 111.4755 C 427.2734 112.4695 426.5084 113.2435 425.5344 113.7975 C 424.5604 114.3535 423.4704 114.6305 422.2624 114.6305 C 421.0554 114.6305 419.9644 114.3535 418.9904 113.7975 C 418.0164 113.2435 417.2514 112.4695 416.6974 111.4755 C 416.1414 110.4825 415.8644 109.3535 415.8644 108.0865 C 415.8644 106.8205 416.1414 105.6905 416.6974 104.6975 C 417.2514 103.7045 418.0164 102.9295 418.9904 102.3755 C 419.9644 101.8195 421.0554 101.5425 422.2624 101.5425 C 423.4704 101.5425 424.5604 101.8195 425.5344 102.3755 M 416.5214 98.88351 C 414.8174 99.79851 413.4824 101.0605 412.5184 102.6665 C 411.5544 104.2735 411.0724 106.0805 411.0724 108.0865 C 411.0724 110.0925 411.5544 111.8995 412.5184 113.5065 C 413.4824 115.1125 414.8174 116.3745 416.5214 117.2905 C 418.2254 118.2055 420.1394 118.6635 422.2624 118.6635 C 424.3854 118.6635 426.2954 118.2055 427.9894 117.2905 C 429.6844 116.3745 431.0174 115.1125 431.9924 113.5065 C 432.9664 111.8995 433.4524 110.0925 433.4524 108.0865 C 433.4524 106.0805 432.9664 104.2735 431.9924 102.6665 C 431.0174 101.0605 429.6844 99.79851 427.9894 98.88351 C 426.2954 97.96751 424.3854 97.50951 422.2624 97.50951 C 420.1394 97.50951 418.2254 97.96751 416.5214 98.88351 " fill="#fffcff"/>
<path transform="matrix(1,0,0,-1,0,305.6774)" d="M 450.8366 108.4082 L 455.1606 108.4082 L 455.1606 100.1102 C 454.0506 99.27321 452.7646 98.63021 451.3036 98.18221 C 449.8436 97.73421 448.3726 97.51021 446.8916 97.51021 C 444.7686 97.51021 442.8606 97.96221 441.1656 98.86921 C 439.4716 99.77521 438.1416 101.0312 437.1776 102.6372 C 436.2126 104.2442 435.7316 106.0612 435.7316 108.0872 C 435.7316 110.1122 436.2126 111.9292 437.1776 113.5362 C 438.1416 115.1422 439.4816 116.3992 441.1946 117.3042 C 442.9086 118.2112 444.8366 118.6632 446.9796 118.6632 C 448.7716 118.6632 450.3986 118.3612 451.8586 117.7572 C 453.3206 117.1542 454.5466 116.2772 455.5406 115.1282 L 452.5016 112.3232 C 451.0416 113.8622 449.2776 114.6312 447.2136 114.6312 C 445.9086 114.6312 444.7496 114.3582 443.7366 113.8132 C 442.7236 113.2672 441.9346 112.4982 441.3706 111.5052 C 440.8046 110.5122 440.5236 109.3722 440.5236 108.0872 C 440.5236 106.8202 440.8046 105.6912 441.3706 104.6982 C 441.9346 103.7042 442.7186 102.9292 443.7216 102.3752 C 444.7246 101.8202 445.8696 101.5422 447.1546 101.5422 C 448.5176 101.5422 449.7446 101.8352 450.8366 102.4182 Z " fill="#fffcff"/>
<path transform="matrix(1,0,0,-1,0,305.6774)" d="M 459.5428 97.86091 L 464.2758 97.86091 L 464.2758 118.31291 L 459.5428 118.31291 Z " fill="#fffcff"/>
<path transform="matrix(1,0,0,-1,0,305.6774)" d="M 484.9611 101.6592 L 484.9611 97.86121 L 469.1261 97.86121 L 469.1261 118.3122 L 484.5811 118.3122 L 484.5811 114.5142 L 473.8301 114.5142 L 473.8301 110.0732 L 483.3241 110.0732 L 483.3241 106.3912 L 473.8301 106.3912 L 473.8301 101.6592 Z " fill="#fffcff"/>
<path transform="matrix(1,0,0,-1,0,305.6774)" d="M 490.76 98.16751 C 489.25 98.60551 488.037 99.17551 487.122 99.87651 L 488.729 103.4405 C 489.606 102.7985 490.648 102.2825 491.855 101.8925 C 493.063 101.5035 494.271 101.3085 495.478 101.3085 C 496.822 101.3085 497.816 101.5075 498.458 101.9075 C 499.101 102.3065 499.422 102.8365 499.422 103.4995 C 499.422 103.9855 499.233 104.3915 498.852 104.7115 C 498.473 105.0335 497.986 105.2915 497.392 105.4855 C 496.798 105.6815 495.994 105.8955 494.981 106.1295 C 493.423 106.4995 492.148 106.8695 491.155 107.2395 C 490.161 107.6085 489.309 108.2035 488.597 109.0215 C 487.886 109.8395 487.531 110.9295 487.531 112.2935 C 487.531 113.4815 487.853 114.5585 488.495 115.5225 C 489.139 116.4865 490.107 117.2505 491.403 117.8155 C 492.698 118.3805 494.281 118.6635 496.15 118.6635 C 497.455 118.6635 498.731 118.5075 499.978 118.1955 C 501.224 117.8835 502.315 117.4365 503.25 116.8515 L 501.789 113.2575 C 499.9 114.3285 498.01 114.8645 496.121 114.8645 C 494.796 114.8645 493.818 114.6505 493.184 114.2225 C 492.552 113.7935 492.236 113.2285 492.236 112.5275 C 492.236 111.8265 492.6 111.3045 493.33 110.9645 C 494.062 110.6235 495.176 110.2875 496.677 109.9565 C 498.234 109.5865 499.51 109.2165 500.504 108.8465 C 501.497 108.4765 502.349 107.8915 503.06 107.0935 C 503.771 106.2935 504.126 105.2125 504.126 103.8505 C 504.126 102.6815 503.8 101.6145 503.148 100.6505 C 502.495 99.68751 501.516 98.92251 500.212 98.35751 C 498.906 97.79251 497.319 97.50951 495.449 97.50951 C 493.832 97.50951 492.269 97.72951 490.76 98.16751 " fill="#fffcff"/>
<path transform="matrix(1,0,0,-1,0,305.6774)" d="M 162.6013 233.7055 L 161.9093 233.7055 C 121.3913 233.7055 88.42731 200.7415 88.42731 160.2235 C 88.42731 146.0985 92.44531 132.3795 100.0473 120.5505 C 106.6013 110.3515 109.8573 106.0115 115.7683 98.13251 L 116.3663 97.33651 C 117.8193 95.39951 120.8733 93.96851 123.8493 93.74951 L 123.8493 93.70851 L 124.5693 93.70851 C 124.5863 93.70851 124.6033 93.70551 124.6203 93.70551 L 124.6203 93.70851 L 186.6293 93.70851 L 193.6293 102.7085 L 124.5883 102.7085 C 124.1353 102.7165 123.6113 102.9005 123.3353 103.0435 L 122.9673 103.5335 C 116.9943 111.4945 113.9963 115.4905 107.6193 125.4155 C 100.9513 135.7905 97.42731 147.8275 97.42731 160.2235 C 97.42731 195.7785 126.3533 224.7055 161.9923 224.7055 L 162.6843 224.7055 C 198.2403 224.7055 227.1663 195.7785 227.1663 160.2235 C 227.1663 147.8275 223.6423 135.7905 216.9743 125.4155 C 210.5323 115.3895 197.5073 97.64251 190.8283 88.72651 C 190.8123 88.72051 190.7473 88.70551 190.6263 88.70551 L 190.6263 88.67051 L 123.5263 88.67051 L 130.1543 79.67051 L 191.1263 79.67051 L 191.1263 79.73251 C 193.9293 79.86851 196.3673 81.12651 198.0253 83.33651 C 204.7793 92.33851 217.9643 110.3075 224.5453 120.5505 C 232.1473 132.3795 236.1663 146.0985 236.1663 160.2235 C 236.1663 200.7415 203.2023 233.7055 162.6013 233.7055 " fill="#fffcff"/>
<path transform="matrix(1,0,0,-1,0,305.6774)" d="M 184.1262 65.19871 L 140.6262 65.19871 L 134.0262 74.19871 L 190.8262 74.19871 Z " fill="#fffcff"/>
<path transform="matrix(1,0,0,-1,0,305.6774)" d="M 183.6061 162.0356 C 184.1181 161.8036 184.6531 161.6066 185.2171 161.4646 C 190.3391 160.1706 195.5401 163.2746 196.8331 168.3966 C 198.1261 173.5186 195.0221 178.7196 189.9001 180.0126 C 186.6201 180.8406 183.3131 179.8596 181.0151 177.7056 L 148.2521 189.7616 C 147.5691 193.0996 145.0531 195.9246 141.5281 196.8146 C 136.6241 198.0526 131.6451 195.0806 130.4071 190.1766 C 129.1681 185.2726 132.1411 180.2926 137.0441 179.0546 C 140.1501 178.2706 143.2821 179.1786 145.4791 181.1916 L 178.1231 169.1806 L 178.1231 169.1786 L 140.9311 138.6796 C 139.8811 139.0756 138.7491 139.3016 137.5611 139.3016 C 132.2781 139.3016 127.9951 135.0186 127.9951 129.7366 C 127.9951 124.4536 132.2781 120.1706 137.5611 120.1706 C 141.7311 120.1706 145.2671 122.8436 146.5771 126.5656 L 181.9191 130.5946 C 183.3081 129.1866 185.2361 128.3136 187.3691 128.3136 C 191.5991 128.3136 195.0271 131.7426 195.0271 135.9726 C 195.0271 140.2016 191.5991 143.6306 187.3691 143.6306 C 184.4131 143.6306 181.8521 141.9526 180.5761 139.4996 L 152.1771 136.2626 Z " fill="#fffcff"/>
</g>
</g>
</g>
</g>
</g>
</g>
</g>
</g>
</g>
</svg>
