<?xml version="1.0" encoding="UTF-8" standalone="no"?>
<!DOCTYPE svg PUBLIC "-//W3C//DTD SVG 1.1//EN" "http://www.w3.org/Graphics/SVG/1.1/DTD/svg11.dtd">
<svg xmlns="http://www.w3.org/2000/svg" xmlns:xlink="http://www.w3.org/1999/xlink" version="1.1" width="441.4595pt" height="194.6917pt" viewBox="0 0 441.4595 194.6917">
<g enable-background="new">
<g>
<clipPath id="cp0">
<path transform="matrix(1,0,0,-1,0,194.6917)" d="M 0 0 L 441.4595 0 L 441.4595 194.6917 L 0 194.6917 Z "/>
</clipPath>
<g clip-path="url(#cp0)">
<g>
<clipPath id="cp1">
<path transform="matrix(1,0,0,-1,0,194.6917)" d="M 0 0 L 442 0 L 442 195 L 0 195 Z "/>
</clipPath>
<g clip-path="url(#cp1)">
<clipPath id="cp2">
<path transform="matrix(1,0,0,-1,0,194.6917)" d="M 0 0 L 441.4595 0 L 441.4595 194.6917 L 0 194.6917 Z "/>
</clipPath>
<g clip-path="url(#cp2)">
<g>
<clipPath id="cp3">
<path transform="matrix(1,0,0,-1,0,194.6917)" d="M 0 0 L 442 0 L 442 195 L 0 195 Z "/>
</clipPath>
<g clip-path="url(#cp3)">
<clipPath id="cp4">
<path transform="matrix(1,0,0,-1,0,194.6917)" d="M 0 0 L 442 0 L 442 195 L 0 195 Z "/>
</clipPath>
<g clip-path="url(#cp4)">
<path transform="matrix(1,0,0,-1,-754.0869,439.26863)" d="M 679.573 191.974 L 1273.573 191.974 L 1273.573 499.974 L 679.573 499.974 Z " fill="#ffffff"/>
<path transform="matrix(1,0,0,-1,-754.0869,439.26863)" stroke-width="1" stroke-linecap="butt" stroke-miterlimit="10" stroke-linejoin="miter" fill="none" stroke="#1f1f1f" d="M 679.573 191.974 L 1273.573 191.974 L 1273.573 499.974 L 679.573 499.974 Z "/>
<path transform="matrix(1,0,0,-1,0,194.6917)" d="M 232.0947 101.8533 L 232.0947 92.48335 L 188.6527 92.48335 L 188.6527 99.93735 L 215.9107 132.8033 L 189.2207 132.8033 L 189.2207 142.1723 L 231.0307 142.1723 L 231.0307 134.7193 L 203.8437 101.8533 Z " fill="#1f1f1f"/>
<path transform="matrix(1,0,0,-1,0,194.6917)" d="M 238.6971 92.48315 L 249.7701 92.48315 L 249.7701 130.67314 L 238.6971 130.67314 Z " fill="#1f1f1f"/>
<path transform="matrix(1,0,0,-1,0,194.6917)" d="M 285.7232 106.0061 C 287.5922 107.7331 288.5272 109.9921 288.5272 112.7851 C 288.5272 115.5771 287.5922 117.8361 285.7232 119.5641 C 283.8522 121.2921 281.4512 122.1551 278.5182 122.1551 C 275.5832 122.1551 273.1702 121.2921 271.2772 119.5641 C 269.3842 117.8361 268.4382 115.5771 268.4382 112.7851 C 268.4382 109.9921 269.3842 107.7331 271.2772 106.0061 C 273.1702 104.2771 275.5832 103.4151 278.5182 103.4151 C 281.4512 103.4151 283.8522 104.2771 285.7232 106.0061 M 299.4582 130.6731 L 299.4582 98.87215 C 299.4582 91.86915 297.6372 86.66215 293.9932 83.25615 C 290.3482 79.84815 285.0242 78.14515 278.0212 78.14515 C 274.3292 78.14515 270.8282 78.59515 267.5152 79.49315 C 264.2022 80.39315 261.4572 81.69415 259.2822 83.39815 L 263.6822 91.34815 C 265.2912 90.02415 267.3262 88.96915 269.7872 88.18915 C 272.2472 87.40715 274.7092 87.01815 277.1702 87.01815 C 281.0032 87.01815 283.8302 87.88215 285.6522 89.60915 C 287.4732 91.33615 288.3852 93.95015 288.3852 97.45315 L 288.3852 99.08515 C 285.4982 95.91315 281.4752 94.32915 276.3172 94.32915 C 272.8152 94.32915 269.6092 95.09815 266.6992 96.63615 C 263.7882 98.17315 261.4812 100.3381 259.7782 103.1311 C 258.0752 105.9231 257.2232 109.1411 257.2232 112.7851 C 257.2232 116.4281 258.0752 119.6461 259.7782 122.4391 C 261.4812 125.2311 263.7882 127.3961 266.6992 128.9341 C 269.6092 130.4711 272.8152 131.2411 276.3172 131.2411 C 281.8542 131.2411 286.0652 129.4181 288.9532 125.7761 L 288.9532 130.6731 Z " fill="#1f1f1f"/>
<path transform="matrix(1,0,0,-1,0,194.6917)" d="M 344.4273 126.9822 C 347.3383 124.1422 348.7923 119.9302 348.7923 114.3462 L 348.7923 92.48325 L 337.7193 92.48325 L 337.7193 112.6432 C 337.7193 115.6712 337.0553 117.9312 335.7323 119.4222 C 334.4063 120.9122 332.4903 121.6592 329.9813 121.6592 C 327.1893 121.6592 324.9653 120.7942 323.3093 119.0662 C 321.6523 117.3392 320.8243 114.7732 320.8243 111.3652 L 320.8243 92.48325 L 309.7513 92.48325 L 309.7513 130.6732 L 320.3273 130.6732 L 320.3273 126.2012 C 321.7943 127.8102 323.6163 129.0522 325.7943 129.9272 C 327.9703 130.8022 330.3603 131.2412 332.9633 131.2412 C 337.6943 131.2412 341.5173 129.8212 344.4273 126.9822 " fill="#1f1f1f"/>
<path transform="matrix(1,0,0,-1,0,194.6917)" d="M 378.3936 100.6829 C 379.8586 101.5579 380.9006 102.8479 381.5166 104.5509 L 381.5166 108.4549 L 373.9216 108.4549 C 369.3776 108.4549 367.1056 106.9649 367.1056 103.9829 C 367.1056 102.5629 367.6616 101.4389 368.7736 100.6109 C 369.8856 99.78295 371.4116 99.36895 373.3526 99.36895 C 375.2446 99.36895 376.9256 99.80695 378.3936 100.6829 M 387.8336 127.0179 C 391.0036 124.2019 392.5906 119.9549 392.5906 114.2759 L 392.5906 92.48295 L 382.2256 92.48295 L 382.2256 97.23995 C 380.1426 93.68995 376.2626 91.91595 370.5846 91.91595 C 367.6496 91.91595 365.1066 92.41295 362.9536 93.40595 C 360.7996 94.40095 359.1556 95.77195 358.0206 97.52295 C 356.8846 99.27395 356.3166 101.2609 356.3166 103.4859 C 356.3166 107.0359 357.6536 109.8279 360.3276 111.8629 C 362.9996 113.8969 367.1296 114.9149 372.7146 114.9149 L 381.5166 114.9149 C 381.5166 117.3289 380.7816 119.1849 379.3156 120.4869 C 377.8486 121.7879 375.6476 122.4389 372.7146 122.4389 C 370.6796 122.4389 368.6786 122.1199 366.7166 121.4809 C 364.7516 120.8419 363.0836 119.9779 361.7116 118.8909 L 357.7366 126.6269 C 359.8186 128.0939 362.3156 129.2289 365.2256 130.0349 C 368.1366 130.8379 371.1276 131.2419 374.2056 131.2419 C 380.1206 131.2419 384.6626 129.8319 387.8336 127.0179 " fill="#1f1f1f"/>
<path transform="matrix(1,0,0,-1,0,194.6917)" d="M 418.5337 129.821 C 420.7817 130.768 423.3717 131.241 426.3067 131.241 L 426.3067 121.02 C 425.0757 121.114 424.2477 121.161 423.8227 121.161 C 420.6507 121.161 418.1667 120.275 416.3697 118.499 C 414.5707 116.725 413.6717 114.063 413.6717 110.513 L 413.6717 92.48305 L 402.5977 92.48305 L 402.5977 130.674 L 413.1747 130.674 L 413.1747 125.634 C 414.4987 127.478 416.2857 128.875 418.5337 129.821 " fill="#1f1f1f"/>
<path transform="matrix(1,0,0,-1,0,194.6917)" d="M 194.6162 63.72975 L 188.0722 63.72975 L 188.0722 67.58675 L 205.8932 67.58675 L 205.8932 63.72975 L 199.3492 63.72975 L 199.3492 47.13475 L 194.6162 47.13475 Z " fill="#1f1f1f"/>
<path transform="matrix(1,0,0,-1,0,194.6917)" d="M 224.2715 50.93345 L 224.2715 47.13545 L 208.4365 47.13545 L 208.4365 67.58645 L 223.8915 67.58645 L 223.8915 63.78845 L 213.1405 63.78845 L 213.1405 59.34745 L 222.6345 59.34745 L 222.6345 55.66545 L 213.1405 55.66545 L 213.1405 50.93345 Z " fill="#1f1f1f"/>
<path transform="matrix(1,0,0,-1,0,194.6917)" d="M 232.1167 48.14335 C 230.4307 49.04935 229.1067 50.30535 228.1427 51.91135 C 227.1787 53.51835 226.6967 55.33535 226.6967 57.36135 C 226.6967 59.38635 227.1787 61.20335 228.1427 62.81035 C 229.1067 64.41635 230.4307 65.67335 232.1167 66.57835 C 233.8007 67.48535 235.6957 67.93735 237.7987 67.93735 C 239.5707 67.93735 241.1737 67.62535 242.6057 67.00335 C 244.0367 66.37935 245.2387 65.48335 246.2137 64.31435 L 243.1757 61.50935 C 241.7907 63.10635 240.0777 63.90535 238.0327 63.90535 C 236.7667 63.90535 235.6367 63.62735 234.6437 63.07235 C 233.6507 62.51835 232.8757 61.74335 232.3217 60.74935 C 231.7657 59.75635 231.4887 58.62735 231.4887 57.36135 C 231.4887 56.09435 231.7657 54.96535 232.3217 53.97235 C 232.8757 52.97835 233.6507 52.20435 234.6437 51.64935 C 235.6367 51.09435 236.7667 50.81635 238.0327 50.81635 C 240.0777 50.81635 241.7907 51.62435 243.1757 53.24135 L 246.2137 50.43635 C 245.2387 49.24835 244.0327 48.34235 242.5907 47.71835 C 241.1487 47.09635 239.5417 46.78435 237.7697 46.78435 C 235.6857 46.78435 233.8007 47.23635 232.1167 48.14335 " fill="#1f1f1f"/>
<path transform="matrix(1,0,0,-1,0,194.6917)" d="M 268.1538 67.58675 L 268.1538 47.13475 L 263.4218 47.13475 L 263.4218 55.52075 L 254.1308 55.52075 L 254.1308 47.13475 L 249.3968 47.13475 L 249.3968 67.58675 L 254.1308 67.58675 L 254.1308 59.52275 L 263.4218 59.52275 L 263.4218 67.58675 Z " fill="#1f1f1f"/>
<path transform="matrix(1,0,0,-1,0,194.6917)" d="M 291.7617 67.58675 L 291.7617 47.13475 L 287.8767 47.13475 L 277.6797 59.55175 L 277.6797 47.13475 L 273.0047 47.13475 L 273.0047 67.58675 L 276.9197 67.58675 L 287.0867 55.16975 L 287.0867 67.58675 Z " fill="#1f1f1f"/>
<path transform="matrix(1,0,0,-1,0,194.6917)" d="M 309.7886 51.64975 C 310.7626 52.20375 311.5266 52.97875 312.0826 53.97175 C 312.6376 54.96475 312.9156 56.09475 312.9156 57.36075 C 312.9156 58.62775 312.6376 59.75675 312.0826 60.74975 C 311.5266 61.74375 310.7626 62.51775 309.7886 63.07175 C 308.8146 63.62775 307.7246 63.90475 306.5166 63.90475 C 305.3086 63.90475 304.2176 63.62775 303.2446 63.07175 C 302.2706 62.51775 301.5056 61.74375 300.9516 60.74975 C 300.3956 59.75675 300.1186 58.62775 300.1186 57.36075 C 300.1186 56.09475 300.3956 54.96475 300.9516 53.97175 C 301.5056 52.97875 302.2706 52.20375 303.2446 51.64975 C 304.2176 51.09375 305.3086 50.81675 306.5166 50.81675 C 307.7246 50.81675 308.8146 51.09375 309.7886 51.64975 M 300.7756 48.15775 C 299.0706 49.07275 297.7366 50.33475 296.7726 51.94075 C 295.8086 53.54775 295.3266 55.35475 295.3266 57.36075 C 295.3266 59.36675 295.8086 61.17375 296.7726 62.78075 C 297.7366 64.38675 299.0706 65.64875 300.7756 66.56475 C 302.4796 67.47975 304.3936 67.93775 306.5166 67.93775 C 308.6396 67.93775 310.5486 67.47975 312.2426 66.56475 C 313.9376 65.64875 315.2716 64.38675 316.2466 62.78075 C 317.2196 61.17375 317.7056 59.36675 317.7056 57.36075 C 317.7056 55.35475 317.2196 53.54775 316.2466 51.94075 C 315.2716 50.33475 313.9376 49.07275 312.2426 48.15775 C 310.5486 47.24175 308.6396 46.78375 306.5166 46.78375 C 304.3936 46.78375 302.4796 47.24175 300.7756 48.15775 " fill="#1f1f1f"/>
<path transform="matrix(1,0,0,-1,0,194.6917)" d="M 321.271 67.58675 L 326.004 67.58675 L 326.004 50.99175 L 336.259 50.99175 L 336.259 47.13475 L 321.271 47.13475 Z " fill="#1f1f1f"/>
<path transform="matrix(1,0,0,-1,0,194.6917)" d="M 351.7437 51.64975 C 352.7177 52.20375 353.4827 52.97875 354.0377 53.97175 C 354.5927 54.96475 354.8707 56.09475 354.8707 57.36075 C 354.8707 58.62775 354.5927 59.75675 354.0377 60.74975 C 353.4827 61.74375 352.7177 62.51775 351.7437 63.07175 C 350.7697 63.62775 349.6797 63.90475 348.4717 63.90475 C 347.2647 63.90475 346.1737 63.62775 345.1997 63.07175 C 344.2257 62.51775 343.4607 61.74375 342.9067 60.74975 C 342.3507 59.75675 342.0737 58.62775 342.0737 57.36075 C 342.0737 56.09475 342.3507 54.96475 342.9067 53.97175 C 343.4607 52.97875 344.2257 52.20375 345.1997 51.64975 C 346.1737 51.09375 347.2647 50.81675 348.4717 50.81675 C 349.6797 50.81675 350.7697 51.09375 351.7437 51.64975 M 342.7307 48.15775 C 341.0267 49.07275 339.6917 50.33475 338.7277 51.94075 C 337.7637 53.54775 337.2817 55.35475 337.2817 57.36075 C 337.2817 59.36675 337.7637 61.17375 338.7277 62.78075 C 339.6917 64.38675 341.0267 65.64875 342.7307 66.56475 C 344.4347 67.47975 346.3487 67.93775 348.4717 67.93775 C 350.5947 67.93775 352.5047 67.47975 354.1987 66.56475 C 355.8937 65.64875 357.2267 64.38675 358.2017 62.78075 C 359.1757 61.17375 359.6617 59.36675 359.6617 57.36075 C 359.6617 55.35475 359.1757 53.54775 358.2017 51.94075 C 357.2267 50.33475 355.8937 49.07275 354.1987 48.15775 C 352.5047 47.24175 350.5947 46.78375 348.4717 46.78375 C 346.3487 46.78375 344.4347 47.24175 342.7307 48.15775 " fill="#1f1f1f"/>
<path transform="matrix(1,0,0,-1,0,194.6917)" d="M 377.0459 57.68245 L 381.3699 57.68245 L 381.3699 49.38445 C 380.2599 48.54745 378.9739 47.90445 377.5129 47.45645 C 376.0529 47.00845 374.5819 46.78445 373.1009 46.78445 C 370.9779 46.78445 369.0699 47.23645 367.3749 48.14345 C 365.6809 49.04945 364.3509 50.30545 363.3869 51.91145 C 362.4219 53.51845 361.9409 55.33545 361.9409 57.36145 C 361.9409 59.38645 362.4219 61.20345 363.3869 62.81045 C 364.3509 64.41645 365.6909 65.67345 367.4039 66.57845 C 369.1179 67.48545 371.0459 67.93745 373.1889 67.93745 C 374.9809 67.93745 376.6079 67.63545 378.0679 67.03145 C 379.5299 66.42845 380.7559 65.55145 381.7499 64.40245 L 378.7109 61.59745 C 377.2509 63.13645 375.4869 63.90545 373.4229 63.90545 C 372.1179 63.90545 370.9589 63.63245 369.9459 63.08745 C 368.9329 62.54145 368.1439 61.77245 367.5799 60.77945 C 367.0139 59.78645 366.7329 58.64645 366.7329 57.36145 C 366.7329 56.09445 367.0139 54.96545 367.5799 53.97245 C 368.1439 52.97845 368.9279 52.20345 369.9309 51.64945 C 370.9339 51.09445 372.0789 50.81645 373.3639 50.81645 C 374.7269 50.81645 375.9539 51.10945 377.0459 51.69245 Z " fill="#1f1f1f"/>
<path transform="matrix(1,0,0,-1,0,194.6917)" d="M 385.7521 47.13515 L 390.4851 47.13515 L 390.4851 67.58715 L 385.7521 67.58715 Z " fill="#1f1f1f"/>
<path transform="matrix(1,0,0,-1,0,194.6917)" d="M 411.1704 50.93345 L 411.1704 47.13545 L 395.3354 47.13545 L 395.3354 67.58645 L 410.7904 67.58645 L 410.7904 63.78845 L 400.0394 63.78845 L 400.0394 59.34745 L 409.5334 59.34745 L 409.5334 55.66545 L 400.0394 55.66545 L 400.0394 50.93345 Z " fill="#1f1f1f"/>
<path transform="matrix(1,0,0,-1,0,194.6917)" d="M 416.9693 47.44175 C 415.4593 47.87975 414.2463 48.44975 413.3313 49.15075 L 414.9383 52.71475 C 415.8153 52.07275 416.8573 51.55675 418.0643 51.16675 C 419.2723 50.77775 420.4803 50.58275 421.6873 50.58275 C 423.0313 50.58275 424.0253 50.78175 424.6673 51.18175 C 425.3103 51.58075 425.6313 52.11075 425.6313 52.77375 C 425.6313 53.25975 425.4423 53.66575 425.0613 53.98575 C 424.6823 54.30775 424.1953 54.56575 423.6013 54.75975 C 423.0073 54.95575 422.2033 55.16975 421.1903 55.40375 C 419.6323 55.77375 418.3573 56.14375 417.3643 56.51375 C 416.3703 56.88275 415.5183 57.47775 414.8063 58.29575 C 414.0953 59.11375 413.7403 60.20375 413.7403 61.56775 C 413.7403 62.75575 414.0623 63.83275 414.7043 64.79675 C 415.3483 65.76075 416.3163 66.52475 417.6123 67.08975 C 418.9073 67.65475 420.4903 67.93775 422.3593 67.93775 C 423.6643 67.93775 424.9403 67.78175 426.1873 67.46975 C 427.4333 67.15775 428.5243 66.71075 429.4593 66.12575 L 427.9983 62.53175 C 426.1093 63.60275 424.2193 64.13875 422.3303 64.13875 C 421.0053 64.13875 420.0273 63.92475 419.3933 63.49675 C 418.7613 63.06775 418.4453 62.50275 418.4453 61.80175 C 418.4453 61.10075 418.8093 60.57875 419.5393 60.23875 C 420.2713 59.89775 421.3853 59.56175 422.8863 59.23075 C 424.4433 58.86075 425.7193 58.49075 426.7133 58.12075 C 427.7063 57.75075 428.5583 57.16575 429.2693 56.36775 C 429.9803 55.56775 430.3353 54.48675 430.3353 53.12475 C 430.3353 51.95575 430.0093 50.88875 429.3573 49.92475 C 428.7043 48.96175 427.7253 48.19675 426.4213 47.63175 C 425.1153 47.06675 423.5283 46.78375 421.6583 46.78375 C 420.0413 46.78375 418.4783 47.00375 416.9693 47.44175 " fill="#1f1f1f"/>
<path transform="matrix(1,0,0,-1,0,194.6917)" d="M 88.8106 182.9797 L 88.1186 182.9797 C 47.6006 182.9797 14.6366 150.0157 14.6366 109.4977 C 14.6366 95.37275 18.6546 81.65375 26.2566 69.82475 C 32.8106 59.62575 36.0666 55.28575 41.9776 47.40675 L 42.5756 46.61075 C 44.0286 44.67375 47.0826 43.24275 50.0586 43.02375 L 50.0586 42.98275 L 50.7786 42.98275 C 50.7956 42.98275 50.8126 42.97975 50.8296 42.97975 L 50.8296 42.98275 L 112.8386 42.98275 L 119.8386 51.98275 L 50.7976 51.98275 C 50.3446 51.99075 49.8206 52.17475 49.5446 52.31775 L 49.1766 52.80775 C 43.2036 60.76875 40.2056 64.76475 33.8286 74.68975 C 27.1606 85.06475 23.6366 97.10175 23.6366 109.4977 C 23.6366 145.0527 52.5626 173.9797 88.2016 173.9797 L 88.8936 173.9797 C 124.4496 173.9797 153.3756 145.0527 153.3756 109.4977 C 153.3756 97.10175 149.8516 85.06475 143.1836 74.68975 C 136.7416 64.66375 123.7166 46.91675 117.0376 38.00075 C 117.0216 37.99475 116.9566 37.97975 116.8356 37.97975 L 116.8356 37.94475 L 49.7356 37.94475 L 56.3636 28.94475 L 117.3356 28.94475 L 117.3356 29.00675 C 120.1386 29.14275 122.5766 30.40075 124.2346 32.61075 C 130.9886 41.61275 144.1736 59.58175 150.7546 69.82475 C 158.3566 81.65375 162.3756 95.37275 162.3756 109.4977 C 162.3756 150.0157 129.4116 182.9797 88.8106 182.9797 " fill="#1f1f1f"/>
<path transform="matrix(1,0,0,-1,0,194.6917)" d="M 110.3355 14.47295 L 66.8355 14.47295 L 60.2355 23.47295 L 117.0355 23.47295 Z " fill="#1f1f1f"/>
<path transform="matrix(1,0,0,-1,0,194.6917)" d="M 109.8154 111.3098 C 110.3274 111.0778 110.8624 110.8808 111.4264 110.7388 C 116.5484 109.4448 121.7494 112.5488 123.0424 117.6708 C 124.3354 122.7928 121.2314 127.9938 116.1094 129.2868 C 112.8294 130.1148 109.5224 129.1338 107.2244 126.9798 L 74.4614 139.0358 C 73.7784 142.3738 71.2624 145.1988 67.7374 146.0888 C 62.8334 147.3268 57.8544 144.3548 56.6164 139.4508 C 55.3774 134.5468 58.3504 129.5668 63.2534 128.3288 C 66.3594 127.5448 69.4914 128.4528 71.6884 130.4658 L 104.3324 118.4548 L 104.3324 118.4528 L 67.1404 87.95385 C 66.0904 88.34985 64.9584 88.57585 63.7704 88.57585 C 58.4874 88.57585 54.2044 84.29285 54.2044 79.01085 C 54.2044 73.72785 58.4874 69.44485 63.7704 69.44485 C 67.9404 69.44485 71.4764 72.11785 72.7864 75.83985 L 108.1284 79.86885 C 109.5174 78.46085 111.4454 77.58785 113.5784 77.58785 C 117.8084 77.58785 121.2364 81.01685 121.2364 85.24685 C 121.2364 89.47585 117.8084 92.90485 113.5784 92.90485 C 110.6224 92.90485 108.0614 91.22685 106.7854 88.77385 L 78.3864 85.53685 Z " fill="#1f1f1f"/>
</g>
</g>
</g>
</g>
</g>
</g>
</g>
</g>
</g>
</svg>
