<svg id="Layer_1" data-name="Layer 1" xmlns="http://www.w3.org/2000/svg" xmlns:xlink="http://www.w3.org/1999/xlink" viewBox="0 0 96 96"><defs><style>.cls-1{fill:url(#New_Gradient_Swatch_1);}.cls-2{fill:url(#New_Gradient_Swatch_1-2);}.cls-3{fill:url(#New_Gradient_Swatch_1-3);}</style><linearGradient id="New_Gradient_Swatch_1" x1="19.81" y1="45.24" x2="76.19" y2="45.24" gradientUnits="userSpaceOnUse"><stop offset="0" stop-color="#4d89fd"/><stop offset="1" stop-color="#17d7ef"/></linearGradient><linearGradient id="New_Gradient_Swatch_1-2" x1="37.21" y1="78.44" x2="58.89" y2="78.44" xlink:href="#New_Gradient_Swatch_1"/><linearGradient id="New_Gradient_Swatch_1-3" x1="35" y1="44.09" x2="61" y2="44.09" xlink:href="#New_Gradient_Swatch_1"/></defs><path class="cls-1" d="M48.12,15.84h-.27A28.06,28.06,0,0,0,24.24,59c2.5,3.89,3.75,5.55,6,8.55l.23.31a4.09,4.09,0,0,0,2.86,1.37H56.52l2.67-3.43H33.61a1.09,1.09,0,0,1-.48-.13L33,65.52c-2.28-3-3.42-4.56-5.86-8.35A24.61,24.61,0,0,1,47.88,19.28h.27A24.61,24.61,0,0,1,68.87,57.17c-2.46,3.83-7.43,10.6-10,14h-.08v0H33.2l2.53,3.43H59v0a3.43,3.43,0,0,0,2.64-1.38C64.21,69.8,69.25,62.94,71.76,59A28.06,28.06,0,0,0,48.12,15.84Z"/><polygon class="cls-2" points="56.33 80.16 39.73 80.16 37.21 76.72 58.89 76.72 56.33 80.16"/><path class="cls-3" d="M56.39,41.84a3.71,3.71,0,1,0-2.21-5.59L42.9,33.93a3.55,3.55,0,1,0-1,2.9l11.89,2.43h0L40.21,50.36A3.62,3.62,0,0,0,38.7,50a3.71,3.71,0,1,0,3.15,5.66l13.34-1.82a3,3,0,1,0,2-5.13,3,3,0,0,0-2.86,2.19l-12,1.63,13.36-11A3.79,3.79,0,0,0,56.39,41.84Z"/></svg>